<svg width="272" height="191" viewBox="0 0 272 191" fill="none" xmlns="http://www.w3.org/2000/svg">
<path d="M232.83 65.2232L225.173 38.0001L211.173 37.9835L232.83 65.2232Z" fill="url(#paint0_linear_69_2713)"/>
<path d="M225.173 37.9991L240.173 18.0001L211.173 37.9991L225.173 37.9991Z" fill="#FFDA7D"/>
<path d="M240.174 18.0001L232.831 64.6877L225.174 38.0009L240.174 18.0001Z" fill="url(#paint1_linear_69_2713)"/>
<path d="M132.812 4.82964L137.059 19.9276L144.823 19.9368L132.812 4.82964Z" fill="url(#paint2_linear_69_2713)"/>
<path d="M137.058 19.9282L128.739 31.0196L144.823 19.9281L137.058 19.9282Z" fill="#FFDA7D"/>
<path d="M128.739 31.0196L132.811 5.12663L137.058 19.9272L128.739 31.0196Z" fill="url(#paint3_linear_69_2713)"/>
<path d="M10.3337 39.3044L32.0071 21.1386L26.2705 8.36789L10.3337 39.3044Z" fill="url(#paint4_linear_69_2713)"/>
<path d="M32.0076 21.1382L56.4035 26.5974L26.2558 8.37432L32.0076 21.1382Z" fill="#FFDA7D"/>
<path d="M56.4038 26.5974L10.8218 39.0845L32.0063 21.139L56.4038 26.5974Z" fill="url(#paint5_linear_69_2713)"/>
<path d="M185.963 83.8444L173.942 93.9192L177.124 101.002L185.963 83.8444Z" fill="url(#paint6_linear_69_2713)"/>
<path d="M173.942 93.9196L160.412 90.8919L177.132 100.998L173.942 93.9196Z" fill="#FFDA7D"/>
<path d="M160.413 90.8921L185.692 83.9668L173.943 93.9194L160.413 90.8921Z" fill="url(#paint7_linear_69_2713)"/>
<path d="M66.6257 109.173L51.5842 101.259L45.7891 107.36L66.6257 109.173Z" fill="url(#paint8_linear_69_2713)"/>
<path d="M51.5834 101.259L49.0604 86.4475L45.7955 107.366L51.5834 101.259Z" fill="#FFDA7D"/>
<path d="M49.0608 86.4475L66.3921 108.952L51.5846 101.26L49.0608 86.4475Z" fill="url(#paint9_linear_69_2713)"/>
<g opacity="0.2">
<path d="M204.626 173.173L189.584 165.259L183.789 171.36L204.626 173.173Z" fill="url(#paint10_linear_69_2713)"/>
<path d="M189.583 165.259L187.06 150.447L183.796 171.366L189.583 165.259Z" fill="#FFDA7D"/>
<path d="M187.061 150.447L204.392 172.952L189.585 165.26L187.061 150.447Z" fill="url(#paint11_linear_69_2713)"/>
</g>
<g opacity="0.2">
<path d="M50.6257 180.174L35.5842 172.259L29.7891 178.36L50.6257 180.174Z" fill="url(#paint12_linear_69_2713)"/>
<path d="M35.5834 172.259L33.0604 157.448L29.7955 178.366L35.5834 172.259Z" fill="#FFDA7D"/>
<path d="M33.0608 157.448L50.3921 179.952L35.5846 172.26L33.0608 157.448Z" fill="url(#paint13_linear_69_2713)"/>
</g>
<path d="M117.51 116.625L125.852 121.014L129.066 117.631L117.51 116.625Z" fill="url(#paint14_linear_69_2713)"/>
<path d="M125.853 121.014L127.252 129.228L129.062 117.627L125.853 121.014Z" fill="#FFDA7D"/>
<path d="M127.251 129.228L117.639 116.747L125.852 121.013L127.251 129.228Z" fill="url(#paint15_linear_69_2713)"/>
<g filter="url(#filter0_i_69_2713)">
<path d="M262.308 134L267.773 141.874C269.012 143.658 268.6 146.104 266.847 147.385L262.532 150.536C261.045 151.622 260.492 153.583 261.192 155.286L264.077 162.309C265.025 164.617 263.652 167.22 261.212 167.741L260 168" stroke="#FFDCA0" stroke-width="6" stroke-linecap="round"/>
</g>
<defs>
<filter id="filter0_i_69_2713" x="256.999" y="131" width="14.4893" height="44.0009" filterUnits="userSpaceOnUse" color-interpolation-filters="sRGB">
<feFlood flood-opacity="0" result="BackgroundImageFix"/>
<feBlend mode="normal" in="SourceGraphic" in2="BackgroundImageFix" result="shape"/>
<feColorMatrix in="SourceAlpha" type="matrix" values="0 0 0 0 0 0 0 0 0 0 0 0 0 0 0 0 0 0 127 0" result="hardAlpha"/>
<feOffset dy="4"/>
<feGaussianBlur stdDeviation="2"/>
<feComposite in2="hardAlpha" operator="arithmetic" k2="-1" k3="1"/>
<feColorMatrix type="matrix" values="0 0 0 0 1 0 0 0 0 0.668547 0 0 0 0 0.258333 0 0 0 1 0"/>
<feBlend mode="normal" in2="shape" result="effect1_innerShadow_69_2713"/>
</filter>
<linearGradient id="paint0_linear_69_2713" x1="215.97" y1="34.7369" x2="235.417" y2="63.4725" gradientUnits="userSpaceOnUse">
<stop stop-color="#EBB329"/>
<stop offset="1" stop-color="#FFD772" stop-opacity="0.53"/>
</linearGradient>
<linearGradient id="paint1_linear_69_2713" x1="234" y1="26.0001" x2="232.5" y2="61.5001" gradientUnits="userSpaceOnUse">
<stop stop-color="#FFF8E6"/>
<stop offset="1" stop-color="#FFC22C"/>
</linearGradient>
<linearGradient id="paint2_linear_69_2713" x1="142.163" y1="21.7374" x2="131.377" y2="5.80055" gradientUnits="userSpaceOnUse">
<stop stop-color="#EBB329"/>
<stop offset="1" stop-color="#FFD772" stop-opacity="0.53"/>
</linearGradient>
<linearGradient id="paint3_linear_69_2713" x1="132.163" y1="26.5828" x2="132.995" y2="6.89448" gradientUnits="userSpaceOnUse">
<stop stop-color="#FFF8E6"/>
<stop offset="1" stop-color="#FFC22C"/>
</linearGradient>
<linearGradient id="paint4_linear_69_2713" x1="31.2013" y1="11.4077" x2="12.9925" y2="40.9436" gradientUnits="userSpaceOnUse">
<stop stop-color="#EBB329"/>
<stop offset="1" stop-color="#FFD772" stop-opacity="0.53"/>
</linearGradient>
<linearGradient id="paint5_linear_69_2713" x1="46.5739" y1="24.256" x2="13.592" y2="37.4733" gradientUnits="userSpaceOnUse">
<stop stop-color="#FFF8E6"/>
<stop offset="1" stop-color="#FFC22C"/>
</linearGradient>
<linearGradient id="paint6_linear_69_2713" x1="174.389" y1="99.3159" x2="184.488" y2="82.9353" gradientUnits="userSpaceOnUse">
<stop stop-color="#EBB329"/>
<stop offset="1" stop-color="#FFD772" stop-opacity="0.53"/>
</linearGradient>
<linearGradient id="paint7_linear_69_2713" x1="165.864" y1="92.1907" x2="184.156" y2="84.8603" gradientUnits="userSpaceOnUse">
<stop stop-color="#FFF8E6"/>
<stop offset="1" stop-color="#FFC22C"/>
</linearGradient>
<linearGradient id="paint8_linear_69_2713" x1="46.3561" y1="103.925" x2="66.9314" y2="107.321" gradientUnits="userSpaceOnUse">
<stop stop-color="#EBB329"/>
<stop offset="1" stop-color="#FFD772" stop-opacity="0.53"/>
</linearGradient>
<linearGradient id="paint9_linear_69_2713" x1="49.9986" y1="92.4478" x2="64.8648" y2="107.779" gradientUnits="userSpaceOnUse">
<stop stop-color="#FFF8E6"/>
<stop offset="1" stop-color="#FFC22C"/>
</linearGradient>
<linearGradient id="paint10_linear_69_2713" x1="184.356" y1="167.925" x2="204.931" y2="171.321" gradientUnits="userSpaceOnUse">
<stop stop-color="#EBB329"/>
<stop offset="1" stop-color="#FFD772" stop-opacity="0.53"/>
</linearGradient>
<linearGradient id="paint11_linear_69_2713" x1="187.999" y1="156.448" x2="202.865" y2="171.779" gradientUnits="userSpaceOnUse">
<stop stop-color="#FFF8E6"/>
<stop offset="1" stop-color="#FFC22C"/>
</linearGradient>
<linearGradient id="paint12_linear_69_2713" x1="30.3561" y1="174.925" x2="50.9314" y2="178.321" gradientUnits="userSpaceOnUse">
<stop stop-color="#EBB329"/>
<stop offset="1" stop-color="#FFD772" stop-opacity="0.53"/>
</linearGradient>
<linearGradient id="paint13_linear_69_2713" x1="33.9986" y1="163.448" x2="48.8648" y2="178.779" gradientUnits="userSpaceOnUse">
<stop stop-color="#FFF8E6"/>
<stop offset="1" stop-color="#FFC22C"/>
</linearGradient>
<linearGradient id="paint14_linear_69_2713" x1="128.752" y1="119.536" x2="117.341" y2="117.652" gradientUnits="userSpaceOnUse">
<stop stop-color="#EBB329"/>
<stop offset="1" stop-color="#FFD772" stop-opacity="0.53"/>
</linearGradient>
<linearGradient id="paint15_linear_69_2713" x1="126.731" y1="125.901" x2="118.486" y2="117.398" gradientUnits="userSpaceOnUse">
<stop stop-color="#FFF8E6"/>
<stop offset="1" stop-color="#FFC22C"/>
</linearGradient>
</defs>
</svg>
