<svg width="30" height="24" viewBox="0 0 30 24" fill="none" xmlns="http://www.w3.org/2000/svg">
<rect x="0.5" y="0.5" width="28.4479" height="23" fill="#FCFE52"/>
<rect x="0.5" y="0.5" width="28.4479" height="23" stroke="#0F0F0F"/>
<path d="M7.3623 7.87739V11.4111H10.896H14.4298V10.189V8.98168H13.885C13.4433 8.98168 13.2666 9.08475 12.8543 9.55592C12.2654 10.2479 11.5586 10.513 10.5868 10.4246C9.26169 10.2921 8.33408 9.24672 8.33408 7.87739C8.33408 6.97923 8.65801 6.33138 9.37948 5.78659C9.85065 5.43322 10.0421 5.37432 10.9108 5.37432C12.0003 5.37432 12.4715 5.60991 13.031 6.41972C13.2666 6.75837 13.4286 6.84672 13.885 6.84672H14.4298V5.59518V4.34365H10.896H7.3623V7.87739ZM8.68746 5.68353L8.02488 6.3461L7.98071 5.88966C7.90709 5.15346 8.02488 5.00622 8.71691 5.00622H9.33531L8.68746 5.68353ZM13.8114 5.55101C13.8703 6.19886 13.5905 6.18414 12.9427 5.50684L12.4421 4.9915L13.1046 5.03567C13.7378 5.07984 13.7672 5.10929 13.8114 5.55101ZM9.27642 10.7044C9.27642 10.7338 8.98194 10.7486 8.61384 10.7486H7.95126V10.0565V9.36451L8.61384 10.0124C8.98194 10.3657 9.27642 10.6749 9.27642 10.7044ZM13.8408 10.2332V10.7486H13.1488H12.4568L12.9574 10.2332C13.2372 9.95346 13.5464 9.71788 13.6494 9.71788C13.7672 9.71788 13.8408 9.90929 13.8408 10.2332Z" fill="black"/>
<path d="M15.6074 7.951V11.4847H19.1412H22.6749V10.2332V8.98167H22.1448C21.6884 8.98167 21.5117 9.08474 21.0258 9.64425C20.0835 10.7044 18.832 10.8811 17.6393 10.086C17.0651 9.70315 16.5056 8.77554 16.4909 8.20131C16.4909 7.951 16.6675 7.93627 19.5829 7.98045L22.6749 8.02462V6.21357V4.41726H19.1412H15.6074V7.951ZM16.9915 5.65407C16.6675 6.00744 16.3731 6.31664 16.3142 6.31664C16.1669 6.33137 16.1522 5.2418 16.2994 5.10928C16.3436 5.05038 16.6528 5.00621 16.9767 5.00621H17.5657L16.9915 5.65407ZM22.0565 5.69824C22.0859 6.05161 22.0565 6.33137 21.9976 6.33137C21.8798 6.33137 20.7608 5.1829 20.7608 5.06511C20.7608 5.02094 21.0406 5.00621 21.3939 5.03566C22.0123 5.07983 22.0123 5.07983 22.0565 5.69824ZM20.3044 5.62462C20.7019 5.83075 21.07 6.19885 21.3056 6.58167L21.6737 7.2148H19.1559C17.3448 7.2148 16.6381 7.17063 16.6381 7.03812C16.6381 6.69946 17.4332 5.84548 18.0221 5.58045C18.832 5.21235 19.5534 5.22707 20.3044 5.62462ZM16.9326 10.189C17.2565 10.5277 17.5215 10.8222 17.5215 10.8516C17.5215 10.8811 17.2418 10.8958 16.9031 10.8663C16.27 10.8222 16.27 10.8222 16.2258 10.189C16.1964 9.85039 16.2258 9.57063 16.27 9.57063C16.3142 9.57063 16.6234 9.85039 16.9326 10.189ZM22.0565 10.2627C22.0123 10.8074 21.9976 10.8222 21.3939 10.8663C21.0406 10.8958 20.7608 10.8516 20.7608 10.778C20.7608 10.6013 21.7473 9.71787 21.9534 9.71787C22.0418 9.71787 22.0859 9.96818 22.0565 10.2627Z" fill="black"/>
<path d="M7.3623 16.1227V19.7301H11.0433H14.7243V18.4786V17.227H14.1795C13.7083 17.227 13.5464 17.3154 13.193 17.7571C12.0445 19.2 9.64451 18.9645 8.84942 17.3301C8.58439 16.7706 8.54022 16.4172 8.54022 14.6062V12.5154H7.95126H7.3623V16.1227ZM8.31936 17.5068C8.36353 17.6688 8.67273 18.0516 8.99666 18.3755C9.60034 18.9939 9.55617 19.1411 8.76108 19.1411C8.05433 19.1411 7.95126 19.0086 7.95126 18.0957C7.95126 17.2418 8.14267 16.9473 8.31936 17.5068ZM14.1353 18.4638C14.1353 19.0381 13.8114 19.2442 13.1488 19.0675L12.766 18.9792L13.2666 18.4638C13.885 17.816 14.1353 17.816 14.1353 18.4638Z" fill="black"/>
<path d="M15.6074 16.1227V19.7301H19.1412H22.6749V16.1227V12.5154H19.1412H15.6074V16.1227ZM17.5215 13.178C17.5215 13.2221 17.2565 13.5166 16.9326 13.8405C16.6086 14.1645 16.3142 14.4295 16.27 14.4295C16.2258 14.4295 16.1964 14.135 16.1964 13.7669V13.1043H16.859C17.2271 13.1043 17.5215 13.1338 17.5215 13.178ZM21.9976 13.3399C22.1154 13.6638 22.1154 14.4295 21.9829 14.4295C21.8356 14.4295 20.7608 13.3694 20.7608 13.2221C20.7608 12.9865 21.9093 13.0896 21.9976 13.3399ZM20.0982 13.6786C20.7608 13.973 21.4528 14.7092 21.5853 15.254C21.6442 15.4602 21.6442 15.9755 21.6148 16.4172C21.497 17.816 20.4958 18.6994 19.0381 18.6994C17.1682 18.6994 15.9461 16.6675 16.7853 14.9595C17.4332 13.6197 18.8172 13.0896 20.0982 13.6786ZM17.2859 19.0381C17.1682 19.1117 16.8884 19.1411 16.6675 19.1117C16.3289 19.0822 16.2553 18.9939 16.2258 18.5816C16.1375 17.6835 16.2847 17.6246 16.9179 18.3019C17.389 18.7878 17.4626 18.9497 17.2859 19.0381ZM22.0859 18.3166C22.0859 18.5669 22.0123 18.8614 21.9093 18.9645C21.7179 19.1559 21.0258 19.2 20.8639 19.0381C20.7461 18.9203 21.8209 17.6982 21.9829 17.7718C22.0418 17.8013 22.0859 18.0516 22.0859 18.3166Z" fill="black"/>
<path d="M22.0308 4.96936H20.54L22.0308 6.68102V4.96936Z" fill="black" stroke="black"/>
<path d="M13.859 4.85889H12.3682L13.859 6.57054V4.85889Z" fill="black" stroke="black"/>
<path d="M22.0308 13.1411H20.54L22.0308 14.8528V13.1411Z" fill="black" stroke="black"/>
<path d="M22.0308 10.9878H20.54L22.0308 9.27614V10.9878Z" fill="black" stroke="black"/>
<path d="M13.859 10.8773H12.3682L13.859 9.16566V10.8773Z" fill="black" stroke="black"/>
<path d="M22.0308 19.1595H20.54L22.0308 17.4479V19.1595Z" fill="black" stroke="black"/>
<path d="M14.1901 19.1595L12.5889 19.0491L14.1901 17.4479V19.1595Z" fill="black" stroke="black"/>
<path d="M16.1235 4.96936H17.6143L16.1235 6.68102V4.96936Z" fill="black" stroke="black"/>
<path d="M7.95159 4.85889H9.44238L7.95159 6.57054V4.85889Z" fill="black" stroke="black"/>
<path d="M16.1235 13.1411H17.6143L16.1235 14.8528V13.1411Z" fill="black" stroke="black"/>
<path d="M16.2338 10.9878H17.7246L16.2338 9.27614V10.9878Z" fill="black" stroke="black"/>
<path d="M7.95159 10.8773H9.44238L7.95159 9.16566V10.8773Z" fill="black" stroke="black"/>
<path d="M16.1235 19.1595H17.6143L16.1235 17.4479V19.1595Z" fill="black" stroke="black"/>
<path d="M8.06186 17.3375L7.841 18.8835L8.66922 19.3252L9.66309 18.9939L8.39315 16.8957L8.06186 17.3375Z" fill="black" stroke="black"/>
</svg>
